<svg width="193" height="80" viewBox="0 0 193 80" fill="none" xmlns="http://www.w3.org/2000/svg">
<path d="M37.652 26.176C38.228 26.88 38.58 27.648 38.708 28.48C38.836 29.248 38.452 29.984 37.556 30.688C36.468 39.392 34.196 47.264 30.74 54.304C27.348 61.28 22.036 67.04 14.804 71.584C13.396 72.48 11.86 73.344 10.196 74.176C8.596 74.944 6.772 75.584 4.724 76.096C4.276 76.16 3.988 76.096 3.86 75.904C3.732 75.648 3.892 75.424 4.34 75.232C5.556 74.656 7.028 73.76 8.756 72.544C10.484 71.328 11.892 70.208 12.98 69.184C16.116 66.112 18.836 62.4 21.14 58.048C23.444 53.632 25.236 49.024 26.516 44.224C27.796 39.424 28.436 34.88 28.436 30.592C28.436 28.864 28.02 27.36 27.188 26.08C26.42 24.736 25.204 23.84 23.54 23.392C23.412 23.328 23.348 23.264 23.348 23.2C23.348 23.072 23.38 22.976 23.444 22.912C24.148 22.464 25.012 22.048 26.036 21.664C27.06 21.28 27.956 21.088 28.724 21.088C30.132 21.088 31.732 21.632 33.524 22.72C35.316 23.744 36.692 24.896 37.652 26.176ZM94.1 26.464C92.308 30.432 90.228 34.624 87.86 39.04C85.492 43.392 82.804 47.264 79.796 50.656C76.468 54.368 72.628 57.76 68.276 60.832C63.924 63.904 59.636 66.368 55.412 68.224C54.644 68.864 54.036 69.376 53.588 69.76C53.14 70.144 52.468 70.272 51.572 70.144C50.932 70.016 50.196 69.472 49.364 68.512C48.532 67.488 47.764 66.432 47.06 65.344C46.42 64.384 45.876 63.488 45.428 62.656C45.044 61.76 44.852 60.992 44.852 60.352C44.852 60.032 45.076 59.744 45.524 59.488C45.972 59.168 46.356 58.784 46.676 58.336C46.868 58.016 47.028 57.664 47.156 57.28C47.348 56.896 47.476 56.512 47.54 56.128C47.86 51.968 48.052 47.552 48.116 42.88C48.244 38.144 48.276 33.728 48.212 29.632C48.148 27.072 48.052 24.768 47.924 22.72C47.86 20.608 47.668 19.136 47.348 18.304C46.964 17.216 46.292 16.352 45.332 15.712C44.372 15.072 43.22 14.56 41.876 14.176C41.748 14.176 41.62 14.112 41.492 13.984C41.364 13.856 41.428 13.696 41.684 13.504C42.58 12.864 43.668 12.352 44.948 11.968C46.292 11.584 47.38 11.392 48.212 11.392C48.852 11.392 49.78 11.68 50.996 12.256C52.276 12.768 53.588 13.44 54.932 14.272C56.276 15.04 57.428 15.872 58.388 16.768C59.348 17.664 59.828 18.464 59.828 19.168C59.828 19.936 59.508 20.704 58.868 21.472C58.228 22.24 57.748 23.008 57.428 23.776C57.172 24.416 56.884 25.44 56.564 26.848C56.244 28.256 56.02 29.856 55.892 31.648C55.764 33.76 55.604 36.128 55.412 38.752C55.22 41.376 55.028 44 54.836 46.624C54.644 49.248 54.484 51.584 54.356 53.632C54.228 55.68 54.164 57.152 54.164 58.048C58.26 57.152 62.58 55.168 67.124 52.096C71.732 48.96 76.084 45.344 80.18 41.248C82.612 38.816 85.012 36.16 87.38 33.28C89.812 30.336 91.636 27.776 92.852 25.6C93.172 25.024 93.524 24.896 93.908 25.216C94.292 25.472 94.356 25.888 94.1 26.464ZM137.012 17.056C137.012 17.312 136.788 17.728 136.34 18.304C136.212 18.496 136.052 18.688 135.86 18.88C135.668 19.072 135.508 19.232 135.38 19.36C135.252 21.024 135.156 22.72 135.092 24.448C135.092 26.176 135.092 27.872 135.092 29.536C135.092 31.712 135.156 33.92 135.284 36.16C135.476 38.4 135.572 40.64 135.572 42.88C135.572 44.288 135.38 45.76 134.996 47.296C134.612 48.768 133.972 50.016 133.076 51.04C132.18 52.064 130.964 52.576 129.428 52.576C128.916 52.576 128.372 52.256 127.796 51.616C127.284 50.976 126.868 50.272 126.548 49.504C126.228 48.672 126.068 48.032 126.068 47.584C126.068 46.24 126.228 44.928 126.548 43.648C126.868 42.304 127.092 40.96 127.22 39.616C127.54 37.12 127.7 34.624 127.7 32.128C127.764 29.568 127.796 27.04 127.796 24.544C127.796 23.456 127.764 22.304 127.7 21.088C127.636 19.808 127.476 18.688 127.22 17.728C127.092 17.088 126.868 16.448 126.548 15.808C126.292 15.168 125.94 14.624 125.492 14.176C125.236 13.856 124.916 13.6 124.532 13.408C124.212 13.216 123.764 13.056 123.188 12.928C122.868 12.736 122.868 12.576 123.188 12.448C124.084 11.808 125.076 11.328 126.164 11.008C127.252 10.688 128.244 10.528 129.14 10.528C129.844 10.528 130.804 10.88 132.02 11.584C133.3 12.288 134.452 13.152 135.476 14.176C136.5 15.136 137.012 16.096 137.012 17.056ZM164.852 13.792C164.852 14.816 164.468 15.68 163.7 16.384C163.444 17.92 163.284 19.488 163.22 21.088C163.156 22.624 163.124 24.192 163.124 25.792C163.124 27.776 163.156 29.728 163.22 31.648C163.284 33.568 163.316 35.52 163.316 37.504C163.316 43.2 162.516 48.48 160.916 53.344C159.38 58.208 156.5 62.656 152.276 66.688C148.756 70.016 144.884 72.512 140.66 74.176C136.5 75.84 132.084 77.216 127.412 78.304C126.26 78.56 124.948 78.816 123.476 79.072C122.068 79.392 120.66 79.616 119.252 79.744C118.676 79.808 118.356 79.68 118.292 79.36C118.292 79.04 118.452 78.848 118.772 78.784C120.436 78.4 122.292 77.856 124.34 77.152C126.452 76.512 128.308 75.808 129.908 75.04C133.684 73.248 137.204 71.072 140.468 68.512C143.732 65.952 146.484 63.008 148.724 59.68C151.028 56.352 152.596 52.608 153.428 48.448C154.004 45.632 154.356 42.752 154.484 39.808C154.676 36.864 154.772 33.952 154.772 31.072C154.772 28.64 154.772 26.208 154.772 23.776C154.772 21.344 154.612 18.944 154.292 16.576C154.228 15.872 154.1 15.232 153.908 14.656C153.78 14.016 153.588 13.472 153.332 13.024C152.948 12.128 152.404 11.36 151.7 10.72C150.996 10.08 150.132 9.72799 149.108 9.664C148.916 9.664 148.788 9.6 148.724 9.472C148.724 9.28 148.788 9.152 148.916 9.088C149.812 8.32 150.868 7.584 152.084 6.88C153.364 6.176 154.42 5.824 155.252 5.824C156.212 5.824 157.3 6.144 158.516 6.784C159.156 7.104 159.956 7.68 160.916 8.512C161.94 9.344 162.836 10.24 163.604 11.2C164.436 12.16 164.852 13.024 164.852 13.792Z" fill="black" fill-opacity="0.15"/>
<g filter="url(#filter0_d_2_13)">
<path d="M35.6528 69.432C35.0768 69.432 34.7888 69.144 34.7888 68.568C34.7888 67.736 35.1728 66.392 35.9408 64.536C36.7728 62.68 37.7328 60.664 38.8208 58.488C39.9728 56.312 41.0608 54.328 42.0848 52.536C43.1728 50.68 43.9728 49.336 44.4848 48.504C44.1008 47.416 43.9088 46.296 43.9088 45.144C43.9088 43.48 44.3568 42.36 45.2528 41.784C46.2128 41.144 47.4608 40.888 48.9968 41.016C50.2128 39.096 51.4288 37.208 52.6448 35.352C53.9248 33.432 55.2368 31.544 56.5808 29.688C57.1568 28.856 57.7648 27.992 58.4048 27.096C59.0448 26.136 59.7168 25.304 60.4208 24.6C60.5488 24.472 60.8048 24.408 61.1888 24.408C61.5088 24.408 62.1168 24.504 63.0128 24.696C63.9088 24.888 64.3568 25.208 64.3568 25.656C64.3568 25.72 64.2288 25.816 63.9728 25.944C63.3328 26.712 62.6928 27.512 62.0528 28.344C61.4128 29.112 60.7728 29.912 60.1328 30.744C58.4688 32.856 56.8368 35.032 55.2368 37.272C53.6368 39.448 52.0688 41.656 50.5328 43.896C52.1328 43.704 54.1808 43.224 56.6768 42.456C59.1728 41.688 61.7968 40.696 64.5488 39.48C67.3648 38.264 70.0208 36.888 72.5168 35.352C75.0128 33.816 77.0288 32.152 78.5648 30.36C80.1648 28.568 80.9648 26.712 80.9648 24.792C80.9648 23.064 80.2928 21.816 78.9487 21.048C77.6048 20.216 76.0368 19.672 74.2448 19.416C72.5168 19.16 71.0448 19.032 69.8288 19.032C65.7328 19.032 61.4128 19.608 56.8688 20.76C52.3888 21.912 48.1648 23.064 44.1968 24.216C43.7488 24.408 43.2368 24.504 42.6608 24.504C41.9568 24.504 41.3808 24.28 40.9328 23.832C40.5488 23.32 40.3568 22.712 40.3568 22.008C40.3568 20.408 41.0608 19.32 42.4688 18.744C42.8528 18.552 43.3008 18.392 43.8128 18.264C44.3248 18.136 44.8048 18.04 45.2528 17.976C49.0288 17.208 52.8688 16.504 56.7728 15.864C60.6768 15.16 64.5808 14.808 68.4848 14.808C70.2128 14.808 72.0368 14.968 73.9568 15.288C75.8768 15.544 77.6368 16.056 79.2368 16.824C80.9008 17.592 82.2448 18.68 83.2688 20.088C84.3568 21.432 84.9008 23.192 84.9008 25.368C84.9008 27.544 84.1328 29.592 82.5968 31.512C81.0608 33.432 79.1408 35.16 76.8368 36.696C74.5328 38.168 72.1648 39.416 69.7328 40.44C67.3008 41.464 65.1888 42.232 63.3968 42.744C61.2208 43.32 59.0448 43.896 56.8688 44.472C54.7568 44.984 52.6128 45.464 50.4368 45.912C50.8848 47.576 51.6208 49.144 52.6448 50.616C53.6688 52.088 54.7888 53.4 56.0048 54.552C58.3728 56.728 61.1568 58.68 64.3568 60.408C67.6208 62.136 70.8208 63.352 73.9568 64.056C74.6608 64.184 75.3008 64.28 75.8768 64.344C76.5168 64.408 77.1568 64.504 77.7968 64.632C78.1808 64.632 78.3728 64.824 78.3728 65.208C78.3728 65.528 78.1488 65.72 77.7008 65.784C77.3168 65.912 76.9648 65.976 76.6448 65.976C74.2768 65.976 71.5888 65.592 68.5808 64.824C65.5728 64.12 62.5648 63.128 59.5568 61.848C56.5488 60.504 53.8288 58.936 51.3968 57.144C48.9648 55.352 47.0768 53.4 45.7328 51.288C44.7728 52.824 43.6848 54.552 42.4688 56.472C41.3168 58.392 40.1968 60.344 39.1088 62.328C38.0848 64.312 37.2848 66.136 36.7088 67.8C36.6448 68.056 36.5488 68.376 36.4208 68.76C36.2928 69.208 36.0368 69.432 35.6528 69.432ZM80.6528 63.384C79.4368 63.384 78.4448 62.936 77.6768 62.04C76.9088 61.144 76.5248 60.088 76.5248 58.872C76.5248 56.888 76.9408 54.84 77.7728 52.728C78.6688 50.552 79.6928 48.472 80.8448 46.488C82.0608 44.504 83.0848 42.744 83.9168 41.208C84.8128 39.672 85.2608 38.584 85.2608 37.944C85.2608 37.624 85.1648 37.432 84.9728 37.368C86.1248 36.856 87.2128 36.6 88.2368 36.6C88.8768 36.6 89.6768 36.76 90.6368 37.08C91.5968 37.336 92.0768 37.88 92.0768 38.712C92.0768 38.968 92.0128 39.224 91.8848 39.48C91.7568 39.672 91.6288 39.864 91.5008 40.056C89.5808 42.744 87.7568 45.432 86.0288 48.12C84.3008 50.808 82.7968 53.688 81.5168 56.76C81.3888 57.144 81.2288 57.56 81.0368 58.008C80.9088 58.456 80.8448 58.904 80.8448 59.352C80.8448 60.44 81.3888 60.984 82.4768 60.984C83.4368 60.984 84.5568 60.312 85.8368 58.968C87.1168 57.56 88.4288 55.832 89.7728 53.784C91.1168 51.672 92.4288 49.496 93.7088 47.256C95.0528 44.952 96.2368 42.904 97.2608 41.112C98.3488 39.256 99.1808 37.912 99.7568 37.08C99.8208 36.952 100.013 36.888 100.333 36.888C100.589 36.888 101.165 36.984 102.061 37.176C103.021 37.368 103.917 37.592 104.749 37.848C105.581 38.104 105.997 38.36 105.997 38.616C105.997 38.68 105.965 38.712 105.901 38.712C105.453 39.352 104.973 39.992 104.461 40.632C103.949 41.272 103.437 41.912 102.925 42.552C101.325 44.728 99.7568 47 98.2208 49.368C96.7488 51.736 95.4688 54.2 94.3808 56.76C94.2528 57.144 94.1248 57.56 93.9968 58.008C93.8688 58.392 93.8048 58.808 93.8048 59.256C93.8048 60.408 94.3808 60.984 95.5328 60.984C96.4928 60.984 97.6128 60.504 98.8928 59.544C100.173 58.584 101.485 57.4 102.829 55.992C104.173 54.584 105.453 53.176 106.669 51.768C107.885 50.296 108.909 49.08 109.741 48.12C110.573 47.16 111.053 46.68 111.181 46.68C111.437 46.68 111.565 46.808 111.565 47.064C111.565 47.128 111.277 47.512 110.701 48.216C110.189 48.856 109.613 49.496 108.973 50.136C108.397 50.776 108.045 51.192 107.917 51.384C106.765 52.728 105.357 54.328 103.693 56.184C102.029 58.04 100.237 59.704 98.3168 61.176C96.4608 62.584 94.5728 63.288 92.6528 63.288C90.0288 63.288 88.7168 61.944 88.7168 59.256C88.7168 58.168 88.9088 57.144 89.2928 56.184C88.7168 57.08 87.9808 58.104 87.0848 59.256C86.1888 60.344 85.1968 61.304 84.1088 62.136C83.0208 62.968 81.8688 63.384 80.6528 63.384ZM118.543 63.384C117.263 63.384 116.207 63 115.375 62.232C114.607 61.464 114.223 60.44 114.223 59.16C114.223 57.88 114.607 56.312 115.375 54.456C116.207 52.6 117.199 50.648 118.351 48.6C119.503 46.552 120.655 44.632 121.807 42.84C122.959 40.984 123.887 39.48 124.591 38.328C124.143 38.52 123.599 38.616 122.959 38.616C122.255 38.616 121.519 38.52 120.751 38.328C119.983 38.072 119.247 37.816 118.543 37.56C118.351 37.88 117.871 38.584 117.103 39.672C116.399 40.696 115.535 41.912 114.511 43.32C113.551 44.664 112.559 45.976 111.535 47.256C110.511 48.536 109.615 49.624 108.847 50.52C108.143 51.352 107.663 51.768 107.407 51.768C107.215 51.768 107.119 51.672 107.119 51.48C107.119 51.352 107.215 51.192 107.407 51C108.111 50.104 108.815 49.24 109.519 48.408C110.287 47.576 111.023 46.712 111.727 45.816C112.815 44.472 113.839 43.064 114.799 41.592C115.759 40.12 116.623 38.584 117.391 36.984C117.007 36.728 116.495 36.344 115.855 35.832C115.215 35.32 114.895 34.808 114.895 34.296C114.895 33.592 115.311 32.92 116.143 32.28C116.975 31.576 117.903 30.968 118.927 30.456C119.951 29.944 120.719 29.56 121.231 29.304C121.487 29.24 122.063 29.016 122.959 28.632C123.919 28.184 124.431 27.96 124.495 27.96C124.751 27.96 124.879 28.088 124.879 28.344C124.879 28.408 124.463 28.824 123.631 29.592C122.863 30.296 122.063 31.16 121.231 32.184C120.463 33.208 120.079 34.232 120.079 35.256C120.079 36.152 120.463 36.792 121.231 37.176C121.999 37.56 122.767 37.752 123.535 37.752C124.239 37.752 124.815 37.624 125.263 37.368C125.455 37.048 125.711 36.888 126.031 36.888C126.543 36.888 127.183 36.984 127.951 37.176C128.719 37.304 129.423 37.56 130.063 37.944C130.703 38.264 131.023 38.744 131.023 39.384C131.023 39.832 130.895 40.28 130.639 40.728C130.383 41.112 130.095 41.464 129.775 41.784C129.135 42.552 128.175 43.704 126.895 45.24C125.679 46.712 124.399 48.344 123.055 50.136C121.775 51.928 120.687 53.624 119.791 55.224C118.895 56.824 118.447 58.072 118.447 58.968C118.447 59.608 118.671 60.152 119.119 60.6C119.567 60.984 120.111 61.176 120.751 61.176C121.775 61.176 122.959 60.696 124.303 59.736C125.647 58.712 126.991 57.496 128.335 56.088C129.743 54.616 131.055 53.176 132.271 51.768C133.487 50.36 134.511 49.176 135.343 48.216C136.175 47.192 136.655 46.68 136.783 46.68C137.039 46.68 137.167 46.808 137.167 47.064C137.167 47.192 136.847 47.64 136.207 48.408C135.567 49.176 134.735 50.136 133.711 51.288C132.751 52.376 131.727 53.496 130.639 54.648C129.615 55.736 128.719 56.696 127.951 57.528C127.183 58.36 126.671 58.872 126.415 59.064C125.391 60.024 124.175 60.984 122.767 61.944C121.423 62.904 120.015 63.384 118.543 63.384ZM148.843 34.104C148.203 34.104 147.659 33.88 147.211 33.432C146.827 32.92 146.635 32.344 146.635 31.704C146.635 30.616 147.115 29.592 148.075 28.632C149.099 27.608 150.155 27.096 151.243 27.096C151.883 27.096 152.363 27.32 152.683 27.768C153.067 28.152 153.259 28.664 153.259 29.304C153.259 30.328 152.779 31.384 151.819 32.472C150.923 33.56 149.931 34.104 148.843 34.104ZM134.827 63.384C133.611 63.384 132.587 63.032 131.755 62.328C130.987 61.624 130.603 60.664 130.603 59.448C130.603 58.488 130.923 57.176 131.563 55.512C132.203 53.848 133.003 52.056 133.963 50.136C134.923 48.216 135.851 46.456 136.747 44.856C137.707 43.192 138.475 41.944 139.051 41.112C139.563 40.28 140.139 39.448 140.779 38.616C141.419 37.784 142.283 37.368 143.371 37.368C143.691 37.368 144.267 37.496 145.099 37.752C145.995 38.008 146.827 38.328 147.595 38.712C148.427 39.032 148.843 39.384 148.843 39.768C148.139 40.024 147.243 40.76 146.155 41.976C145.067 43.128 143.915 44.504 142.699 46.104C141.483 47.704 140.331 49.368 139.243 51.096C138.219 52.824 137.355 54.424 136.651 55.896C136.011 57.368 135.691 58.488 135.691 59.256C135.691 60.408 136.267 60.984 137.419 60.984C138.315 60.984 139.403 60.504 140.683 59.544C141.963 58.584 143.275 57.4 144.619 55.992C146.027 54.584 147.339 53.176 148.555 51.768C149.771 50.296 150.795 49.08 151.627 48.12C152.459 47.16 152.939 46.68 153.067 46.68C153.323 46.68 153.451 46.808 153.451 47.064C153.451 47.192 153.131 47.64 152.491 48.408C151.851 49.176 151.019 50.136 149.995 51.288C149.035 52.376 148.011 53.496 146.923 54.648C145.899 55.736 145.003 56.696 144.235 57.528C143.467 58.36 142.955 58.872 142.699 59.064C141.675 60.024 140.459 60.984 139.051 61.944C137.707 62.904 136.299 63.384 134.827 63.384Z" fill="black"/>
</g>
<defs>
<filter id="filter0_d_2_13" x="30.7887" y="14.808" width="126.662" height="62.624" filterUnits="userSpaceOnUse" color-interpolation-filters="sRGB">
<feFlood flood-opacity="0" result="BackgroundImageFix"/>
<feColorMatrix in="SourceAlpha" type="matrix" values="0 0 0 0 0 0 0 0 0 0 0 0 0 0 0 0 0 0 127 0" result="hardAlpha"/>
<feOffset dy="4"/>
<feGaussianBlur stdDeviation="2"/>
<feComposite in2="hardAlpha" operator="out"/>
<feColorMatrix type="matrix" values="0 0 0 0 0 0 0 0 0 0 0 0 0 0 0 0 0 0 0.25 0"/>
<feBlend mode="normal" in2="BackgroundImageFix" result="effect1_dropShadow_2_13"/>
<feBlend mode="normal" in="SourceGraphic" in2="effect1_dropShadow_2_13" result="shape"/>
</filter>
</defs>
</svg>
